<?xml version="1.0" encoding="utf-8"?>
<!-- Generator: Adobe Illustrator 24.0.1, SVG Export Plug-In . SVG Version: 6.00 Build 0)  -->
<svg version="1.1" xmlns="http://www.w3.org/2000/svg" xmlns:xlink="http://www.w3.org/1999/xlink" x="0px" y="0px"
	 viewBox="0 0 1920 1080" style="enable-background:new 0 0 1920 1080;" xml:space="preserve">
<style type="text/css">
	.st0{fill:#1A1A1A;}
	.st1{opacity:0.78;}
</style>
<g id="Capa_1">
</g>
<g id="Capa_2">
	<g>
		<g>
			<rect class="st0" width="1920" height="1080"/>
		</g>
		<g class="st1">
			<image style="overflow:visible;" width="161" height="161" xlink:href="F59FF530.png"  transform="matrix(1 0 0 1 0 329)">
			</image>
		</g>
		<g class="st1">
			<image style="overflow:visible;" width="139" height="138" xlink:href="F59FF531.png"  transform="matrix(1 0 0 1 277 364)">
			</image>
		</g>
		<g class="st1">
			<image style="overflow:visible;" width="219" height="219" xlink:href="F59FF537.png"  transform="matrix(1 0 0 1 104 312)">
			</image>
		</g>
		<g class="st1">
			<image style="overflow:visible;" width="84" height="184" xlink:href="F59FF532.png"  transform="matrix(1 0 0 1 -37 307)">
			</image>
		</g>
		<g class="st1">
			<image style="overflow:visible;" width="90" height="180" xlink:href="F59FF533.png"  transform="matrix(1 0 0 1 -37 178)">
			</image>
		</g>
		<g class="st1">
			<image style="overflow:visible;" width="107" height="193" xlink:href="F59FF53E.png"  transform="matrix(1 0 0 1 -37 39)">
			</image>
		</g>
		<g class="st1">
			<image style="overflow:visible;" width="116" height="135" xlink:href="F59FF53F.png"  transform="matrix(1 0 0 1 -37 -36)">
			</image>
		</g>
		<g class="st1">
			<image style="overflow:visible;" width="198" height="198" xlink:href="F59FF534.png"  transform="matrix(1 0 0 1 -7 178)">
			</image>
		</g>
		<g class="st1">
			<image style="overflow:visible;" width="163" height="163" xlink:href="F59FF535.png"  transform="matrix(1 0 0 1 22 63)">
			</image>
		</g>
		<g class="st1">
			<image style="overflow:visible;" width="170" height="171" xlink:href="801E704F.png"  transform="matrix(1 0 0 1 140 203)">
			</image>
		</g>
		<g class="st1">
			<image style="overflow:visible;" width="199" height="198" xlink:href="801E704D.png"  transform="matrix(1 0 0 1 137 57)">
			</image>
		</g>
		<g class="st1">
			<image style="overflow:visible;" width="189" height="155" xlink:href="801E704B.png"  transform="matrix(1 0 0 1 153 -36)">
			</image>
		</g>
		<g class="st1">
			<image style="overflow:visible;" width="199" height="199" xlink:href="801E7045.png"  transform="matrix(1 0 0 1 270 68)">
			</image>
		</g>
		<g class="st1">
			<image style="overflow:visible;" width="136" height="136" xlink:href="801E7047.png"  transform="matrix(1 0 0 1 313 -33)">
			</image>
		</g>
		<g class="st1">
			<image style="overflow:visible;" width="155" height="155" xlink:href="801E705A.png"  transform="matrix(1 0 0 1 459 229)">
			</image>
		</g>
		<g class="st1">
			<image style="overflow:visible;" width="127" height="127" xlink:href="801E705B.png"  transform="matrix(1 0 0 1 661 92)">
			</image>
		</g>
		<g class="st1">
			<image style="overflow:visible;" width="147" height="147" xlink:href="801E705D.png"  transform="matrix(1 0 0 1 543 46)">
			</image>
		</g>
		<g class="st1">
			<image style="overflow:visible;" width="161" height="151" xlink:href="801E705F.png"  transform="matrix(1 0 0 1 1713 965)">
			</image>
		</g>
		<g class="st1">
			<image style="overflow:visible;" width="138" height="116" xlink:href="801E7058.png"  transform="matrix(1 0 0 1 1459 1000)">
			</image>
		</g>
		<g class="st1">
			<image style="overflow:visible;" width="216" height="168" xlink:href="801E707E.png"  transform="matrix(1 0 0 1 1552 948)">
			</image>
		</g>
		<g class="st1">
			<image style="overflow:visible;" width="129" height="177" xlink:href="801E707D.png"  transform="matrix(1 0 0 1 1827 939)">
			</image>
		</g>
		<g class="st1">
			<image style="overflow:visible;" width="135" height="185" xlink:href="801E707A.png"  transform="matrix(1 0 0 1 1821 810)">
			</image>
		</g>
		<g class="st1">
			<image style="overflow:visible;" width="152" height="197" xlink:href="801E7075.png"  transform="matrix(1 0 0 1 1804 671)">
			</image>
		</g>
		<g class="st1">
			<image style="overflow:visible;" width="164" height="197" xlink:href="801E7076.png"  transform="matrix(1 0 0 1 1792 538)">
			</image>
		</g>
		<g class="st1">
			<image style="overflow:visible;" width="198" height="198" xlink:href="801E7074.png"  transform="matrix(1 0 0 1 1683 814)">
			</image>
		</g>
		<g class="st1">
			<image style="overflow:visible;" width="163" height="163" xlink:href="801E706A.png"  transform="matrix(1 0 0 1 1689 699)">
			</image>
		</g>
		<g class="st1">
			<image style="overflow:visible;" width="170" height="171" xlink:href="801E706D.png"  transform="matrix(1 0 0 1 1564 839)">
			</image>
		</g>
		<g class="st1">
			<image style="overflow:visible;" width="199" height="198" xlink:href="801E706E.png"  transform="matrix(1 0 0 1 1538 693)">
			</image>
		</g>
		<g class="st1">
			<image style="overflow:visible;" width="190" height="191" xlink:href="801E706C.png"  transform="matrix(1 0 0 1 1531 564)">
			</image>
		</g>
		<g class="st1">
			<image style="overflow:visible;" width="198" height="199" xlink:href="801E7091.png"  transform="matrix(1 0 0 1 1406 704)">
			</image>
		</g>
		<g class="st1">
			<image style="overflow:visible;" width="137" height="136" xlink:href="801E708F.png"  transform="matrix(1 0 0 1 1425 603)">
			</image>
		</g>
		<g class="st1">
			<image style="overflow:visible;" width="155" height="155" xlink:href="801E70B1.png"  transform="matrix(1 0 0 1 1260 865)">
			</image>
		</g>
		<g class="st1">
			<image style="overflow:visible;" width="128" height="127" xlink:href="801E70B3.png"  transform="matrix(1 0 0 1 1086 728)">
			</image>
		</g>
		<g class="st1">
			<image style="overflow:visible;" width="148" height="147" xlink:href="801E70B0.png"  transform="matrix(1 0 0 1 1184 682)">
			</image>
		</g>
	</g>
</g>
</svg>
