<svg xmlns="http://www.w3.org/2000/svg" viewBox="0 0 276.23 275.96"><defs><style>.cls-1{fill:#3c3c3b;}.cls-1,.cls-2{stroke:#fff;stroke-miterlimit:10;stroke-width:5px;}.cls-2{fill:#95c11f;}</style></defs><title>Recurso 3</title><g id="Capa_2" data-name="Capa 2"><g id="Capa_1-2" data-name="Capa 1"><rect class="cls-1" x="150.1" y="203.3" width="57.83" height="57.83" rx="17.01" transform="translate(-19.56 16.49) rotate(-5)"/><rect class="cls-1" x="20.48" y="214.64" width="57.83" height="57.83" rx="17.01" transform="translate(-21.04 5.23) rotate(-5)"/><rect class="cls-1" x="85.29" y="208.97" width="57.83" height="57.83" rx="17.01" transform="translate(-20.3 10.86) rotate(-5)"/><rect class="cls-1" x="214.91" y="197.63" width="57.83" height="57.83" rx="17.01" transform="translate(-18.82 22.11) rotate(-5)"/><rect class="cls-1" x="209.25" y="132.92" width="57.83" height="57.83" rx="17.01" transform="translate(-13.2 21.37) rotate(-5)"/><rect class="cls-1" x="203.58" y="68.2" width="57.83" height="57.83" rx="17.01" transform="translate(-7.58 20.63) rotate(-5)"/><rect class="cls-1" x="197.92" y="3.49" width="57.83" height="57.83" rx="17.01" transform="translate(-1.96 19.89) rotate(-5)"/><rect class="cls-2" x="144.44" y="138.59" width="57.83" height="57.83" rx="17.01" transform="translate(-13.94 15.75) rotate(-5)"/><rect class="cls-2" x="138.77" y="73.87" width="57.83" height="57.83" rx="17.01" transform="translate(-8.32 15.01) rotate(-5)"/><rect class="cls-2" x="79.63" y="144.26" width="57.83" height="57.83" rx="17.01" transform="translate(-14.68 10.12) rotate(-5)"/><rect class="cls-2" x="73.96" y="79.54" width="57.83" height="57.83" rx="17.01" transform="translate(-9.06 9.38) rotate(-5)"/><rect class="cls-1" x="68.3" y="14.83" width="57.83" height="57.83" rx="17.01" transform="translate(-3.44 8.64) rotate(-5)"/><rect class="cls-1" x="9.15" y="85.21" width="57.83" height="57.83" rx="17.01" transform="translate(-9.8 3.75) rotate(-5)"/><rect class="cls-1" x="3.49" y="20.5" width="57.83" height="57.83" rx="17.01" transform="translate(-4.18 3.01) rotate(-5)"/></g></g></svg>