<svg xmlns="http://www.w3.org/2000/svg" viewBox="0 0 373.36 373.36"><defs><style>.cls-1{fill:#fff;}.cls-2{fill:#3c3c3b;}.cls-3{fill:#95c11f;}</style></defs><title>Recurso 4</title><g id="Capa_2" data-name="Capa 2"><g id="Capa_1-2" data-name="Capa 1"><circle class="cls-1" cx="186.68" cy="186.68" r="186.68"/><rect class="cls-2" x="198.66" y="252.28" width="57.83" height="57.83" rx="17.01" transform="translate(-23.64 20.9) rotate(-5)"/><rect class="cls-2" x="69.05" y="263.62" width="57.83" height="57.83" rx="17.01" transform="translate(-25.12 9.65) rotate(-5)"/><rect class="cls-2" x="133.85" y="257.95" width="57.83" height="57.83" rx="17.01" transform="translate(-24.38 15.28) rotate(-5)"/><rect class="cls-2" x="263.47" y="246.61" width="57.83" height="57.83" rx="17.01" transform="translate(-22.9 26.53) rotate(-5)"/><rect class="cls-2" x="257.81" y="181.9" width="57.83" height="57.83" rx="17.01" transform="translate(-17.28 25.79) rotate(-5)"/><rect class="cls-2" x="252.15" y="117.19" width="57.83" height="57.83" rx="17.01" transform="translate(-11.66 25.05) rotate(-5)"/><rect class="cls-2" x="246.49" y="52.48" width="57.83" height="57.83" rx="17.01" transform="translate(-6.05 24.31) rotate(-5)"/><rect class="cls-3" x="193" y="187.57" width="57.83" height="57.83" rx="17.01" transform="translate(-18.02 20.17) rotate(-5)"/><rect class="cls-3" x="187.34" y="122.86" width="57.83" height="57.83" rx="17.01" transform="translate(-12.41 19.43) rotate(-5)"/><rect class="cls-3" x="128.19" y="193.24" width="57.83" height="57.83" rx="17.01" transform="translate(-18.76 14.54) rotate(-5)"/><rect class="cls-3" x="122.53" y="128.53" width="57.83" height="57.83" rx="17.01" transform="translate(-13.15 13.8) rotate(-5)"/><rect class="cls-2" x="116.87" y="63.82" width="57.83" height="57.83" rx="17.01" transform="translate(-7.53 13.06) rotate(-5)"/><rect class="cls-2" x="57.72" y="134.2" width="57.83" height="57.83" rx="17.01" transform="translate(-13.89 8.17) rotate(-5)"/><rect class="cls-2" x="52.06" y="69.49" width="57.83" height="57.83" rx="17.01" transform="translate(-8.27 7.43) rotate(-5)"/></g></g></svg>