<svg xmlns="http://www.w3.org/2000/svg" viewBox="0 0 373.36 373.36"><defs><style>.cls-1{fill:#fff;}.cls-2{fill:#3c3c3b;}.cls-3{fill:#95c11f;}</style></defs><title>Recurso 6</title><g id="Capa_2" data-name="Capa 2"><g id="Capa_1-2" data-name="Capa 1"><circle class="cls-1" cx="186.68" cy="186.68" r="186.68"/><rect class="cls-2" x="193.7" y="258.89" width="51.02" height="51.02" rx="17.01"/><rect class="cls-2" x="63.58" y="258.89" width="51.02" height="51.02" rx="17.01"/><rect class="cls-2" x="128.64" y="258.89" width="51.02" height="51.02" rx="17.01"/><rect class="cls-2" x="258.76" y="258.89" width="51.02" height="51.02" rx="17.01"/><rect class="cls-2" x="258.76" y="193.93" width="51.02" height="51.02" rx="17.01"/><rect class="cls-2" x="258.76" y="128.97" width="51.02" height="51.02" rx="17.01"/><rect class="cls-2" x="258.76" y="64.02" width="51.02" height="51.02" rx="17.01"/><rect class="cls-3" x="193.7" y="193.93" width="51.02" height="51.02" rx="17.01"/><rect class="cls-3" x="193.7" y="128.97" width="51.02" height="51.02" rx="17.01"/><rect class="cls-3" x="128.64" y="193.93" width="51.02" height="51.02" rx="17.01"/><rect class="cls-3" x="128.64" y="128.97" width="51.02" height="51.02" rx="17.01"/><rect class="cls-2" x="128.64" y="64.02" width="51.02" height="51.02" rx="17.01"/><rect class="cls-2" x="63.58" y="128.97" width="51.02" height="51.02" rx="17.01"/><rect class="cls-2" x="63.58" y="64.02" width="51.02" height="51.02" rx="17.01"/></g></g></svg>