<svg xmlns="http://www.w3.org/2000/svg" viewBox="0 0 246.2 245.9"><defs><style>.cls-1{fill:#3c3c3b;}.cls-2{fill:#95c11f;}</style></defs><title>Recurso 5</title><g id="Capa_2" data-name="Capa 2"><g id="Capa_1-2" data-name="Capa 1"><rect class="cls-1" x="130.11" y="194.87" width="51.02" height="51.02" rx="17.01"/><rect class="cls-1" y="194.87" width="51.02" height="51.02" rx="17.01"/><rect class="cls-1" x="65.06" y="194.87" width="51.02" height="51.02" rx="17.01"/><rect class="cls-1" x="195.17" y="194.87" width="51.02" height="51.02" rx="17.01"/><rect class="cls-1" x="195.17" y="129.92" width="51.02" height="51.02" rx="17.01"/><rect class="cls-1" x="195.17" y="64.96" width="51.02" height="51.02" rx="17.01"/><rect class="cls-1" x="195.17" width="51.02" height="51.02" rx="17.01"/><rect class="cls-2" x="130.11" y="129.92" width="51.02" height="51.02" rx="17.01"/><rect class="cls-2" x="130.11" y="64.96" width="51.02" height="51.02" rx="17.01"/><rect class="cls-2" x="65.06" y="129.92" width="51.02" height="51.02" rx="17.01"/><rect class="cls-2" x="65.06" y="64.96" width="51.02" height="51.02" rx="17.01"/><rect class="cls-1" x="65.06" width="51.02" height="51.02" rx="17.01"/><rect class="cls-1" y="64.96" width="51.02" height="51.02" rx="17.01"/><rect class="cls-1" width="51.02" height="51.02" rx="17.01"/></g></g></svg>