<svg xmlns="http://www.w3.org/2000/svg" viewBox="0 0 271.23 270.96"><defs><style>.cls-1{fill:#fff;}.cls-2{fill:#95c11f;}</style></defs><title>Recurso 2</title><g id="Capa_2" data-name="Capa 2"><g id="Capa_1-2" data-name="Capa 1"><rect class="cls-1" x="147.6" y="200.8" width="57.83" height="57.83" rx="17.01" transform="translate(-19.35 16.26) rotate(-5)"/><rect class="cls-1" x="17.98" y="212.14" width="57.83" height="57.83" rx="17.01" transform="translate(-20.83 5) rotate(-5)"/><rect class="cls-1" x="82.79" y="206.47" width="57.83" height="57.83" rx="17.01" transform="translate(-20.09 10.63) rotate(-5)"/><rect class="cls-1" x="212.41" y="195.13" width="57.83" height="57.83" rx="17.01" transform="translate(-18.61 21.89) rotate(-5)"/><rect class="cls-1" x="206.75" y="130.42" width="57.83" height="57.83" rx="17.01" transform="translate(-12.99 21.15) rotate(-5)"/><rect class="cls-1" x="201.08" y="65.7" width="57.83" height="57.83" rx="17.01" transform="translate(-7.37 20.41) rotate(-5)"/><rect class="cls-1" x="195.42" y="0.99" width="57.83" height="57.83" rx="17.01" transform="translate(-1.75 19.67) rotate(-5)"/><rect class="cls-2" x="141.94" y="136.09" width="57.83" height="57.83" rx="17.01" transform="translate(-13.73 15.52) rotate(-5)"/><rect class="cls-2" x="136.27" y="71.37" width="57.83" height="57.83" rx="17.01" transform="translate(-8.11 14.78) rotate(-5)"/><rect class="cls-2" x="77.13" y="141.76" width="57.83" height="57.83" rx="17.01" transform="matrix(1, -0.09, 0.09, 1, -14.47, 9.89)"/><rect class="cls-2" x="71.46" y="77.04" width="57.83" height="57.83" rx="17.01" transform="translate(-8.85 9.15) rotate(-5)"/><rect class="cls-1" x="65.8" y="12.33" width="57.83" height="57.83" rx="17.01" transform="translate(-3.23 8.41) rotate(-5)"/><rect class="cls-1" x="6.65" y="82.71" width="57.83" height="57.83" rx="17.01" transform="translate(-9.59 3.52) rotate(-5)"/><rect class="cls-1" x="0.99" y="18" width="57.83" height="57.83" rx="17.01" transform="matrix(1, -0.09, 0.09, 1, -3.98, 2.79)"/></g></g></svg>